<svg version="1.2" xmlns="http://www.w3.org/2000/svg" viewBox="0 0 450 80" width="450" height="80">
	<title>Anastasia Rose</title>
	<style>
		.s0 { fill: #EAEFF4 }
	</style>
	<path id="E" class="s0" d="m418 21.8h21.2v3.6h-17.5v11.6h17.4v3.6h-17.4v14.5h17.4v3.7h-21.1z"/>
	<path id="S" class="s0" d="m388.8 51.2l3.1-1.8q3.2 5.9 7.3 5.9 1.8 0 3.4-0.8 1.6-0.9 2.4-2.3 0.8-1.4 0.8-2.9 0-1.8-1.2-3.6-1.7-2.3-6.1-5.7-4.4-3.3-5.5-4.8-1.9-2.5-1.9-5.5 0-2.3 1.1-4.2 1.1-1.9 3.1-3 2.1-1.1 4.4-1.1 2.5 0 4.7 1.2 2.2 1.3 4.7 4.6l-2.9 2.2q-2.1-2.6-3.5-3.5-1.4-0.8-3.1-0.8-2.1 0-3.5 1.3-1.3 1.3-1.3 3.2 0 1.2 0.4 2.2 0.5 1.1 1.8 2.4 0.7 0.7 4.6 3.6 4.6 3.4 6.3 6 1.8 2.7 1.8 5.4 0 3.8-3 6.7-2.9 2.9-7.1 2.9-3.3 0-5.9-1.8-2.6-1.7-4.9-5.8z"/>
	<path id="O" fill-rule="evenodd" class="s0" d="m363.3 21.6q8 0 13.4 5.4 5.4 5.4 5.4 13.2 0 7.7-5.4 13.1-5.4 5.5-13.2 5.5-7.8 0-13.2-5.4-5.4-5.4-5.4-13 0-5.1 2.4-9.5 2.5-4.3 6.8-6.8 4.2-2.5 9.2-2.5zm0.1 3.5q-3.9 0-7.4 2-3.5 2.1-5.5 5.5-2 3.5-2 7.7 0 6.3 4.4 10.7 4.4 4.3 10.5 4.3 4.1 0 7.6-2 3.5-2 5.5-5.4 2-3.5 2-7.7 0-4.2-2-7.6-2-3.4-5.5-5.5-3.6-2-7.6-2z"/>
	<g id="R">
		<path id="R2" class="s0" d="m325.5 43.8h4.7l11.6 14.9h-4.7z"/>
		<path id="R1" class="s0" d="m337.9 31.3q0 3.1-1.4 5.4-1.5 2.3-4.1 3.5-2.7 1.2-7.3 1.2v-3.6q3.4 0 5.2-0.7 1.7-0.7 2.7-2.3 1.1-1.5 1.1-3.5 0-1.8-1.1-3.4-1-1.5-2.6-2.2-1.7-0.6-5.5-0.6h-6.6v11.6 1 3.7 0.4 16.9l-3.7-7.4v-29.9h7.4q6.2 0 8.4 0.5 3.3 0.8 5.4 3.3 2.1 2.5 2.1 6.1z"/>
	</g>
	<path id="A" class="s0" d="m274.9 21.5l17.3 37.2h-19l1.1-3.2h12.3l-12.2-26.1-8.1 17.1-5.8 12.2h-4.1l17.5-37.2z"/>
	<path id="I" class="s0" d="m246.7 59v-37.3h3.7v37.3z"/>
	<path id="S" class="s0" d="m216.8 51.2l3.1-1.8q3.2 5.9 7.3 5.9 1.8 0 3.4-0.8 1.6-0.9 2.4-2.3 0.8-1.4 0.8-2.9 0-1.8-1.2-3.6-1.7-2.3-6.1-5.7-4.4-3.3-5.5-4.8-1.9-2.5-1.9-5.5 0-2.3 1.1-4.2 1.1-1.9 3.1-3 2.1-1.1 4.4-1.1 2.5 0 4.7 1.2 2.2 1.3 4.7 4.6l-2.9 2.2q-2.1-2.6-3.5-3.5-1.4-0.8-3.1-0.8-2.1 0-3.5 1.3-1.3 1.3-1.3 3.2 0 1.2 0.4 2.2 0.5 1.1 1.8 2.4 0.7 0.7 4.6 3.6 4.6 3.4 6.3 6 1.8 2.7 1.8 5.4 0 3.8-3 6.7-2.9 2.9-7.1 2.9-3.3 0-5.9-1.8-2.6-1.7-4.9-5.8z"/>
	<path id="A" class="s0" d="m192.9 21.5l17.3 37.2h-19l1.1-3.2h12.3l-12.2-26.1-8.1 17.1-5.8 12.2h-4.1l17.5-37.2z"/>
	<path id="T" class="s0" d="m154.7 25v-3.7h20.5v3.7h-8.3v33.7h-3.8v-33.7z"/>
	<path id="S" class="s0" d="m127.4 51.2l3.1-1.8q3.1 5.9 7.3 5.9 1.8 0 3.4-0.8 1.6-0.9 2.4-2.3 0.8-1.4 0.8-2.9 0-1.8-1.2-3.6-1.7-2.3-6.1-5.7-4.4-3.3-5.5-4.8-1.9-2.5-1.9-5.5 0-2.3 1.1-4.2 1.1-1.9 3.1-3 2-1.1 4.4-1.1 2.5 0 4.7 1.2 2.2 1.3 4.6 4.6l-2.9 2.2q-2-2.6-3.4-3.5-1.4-0.8-3.1-0.8-2.1 0-3.5 1.3-1.3 1.3-1.3 3.2 0 1.2 0.4 2.2 0.5 1.1 1.8 2.4 0.7 0.7 4.6 3.6 4.6 3.4 6.3 6 1.7 2.7 1.7 5.4 0 3.8-2.9 6.7-2.9 2.9-7.1 2.9-3.3 0-5.9-1.8-2.6-1.7-4.9-5.8z"/>
	<path id="A" class="s0" d="m105.9 21.5l17.3 37.2h-19l1.1-3.2h12.3l-12.2-26.1-8.1 17.1-5.8 12.2h-4.1l17.5-37.2z"/>
	<path id="N" class="s0" d="m52.8 58.7v-37.2h0.8l24.7 28.5v-28.5h3.7v37.2h-0.9l-24.5-28.1v28.1z"/>
	<path id="A" class="s0" d="m30.9 21.5l17.3 37.2h-19l1.1-3.2h12.3l-12.2-26.1-8.1 17.1-5.8 12.2h-4.1l17.5-37.2z"/>
</svg>
