<svg version="1.2" xmlns="http://www.w3.org/2000/svg" viewBox="0 0 800 800" width="800" height="800">
	<title>&lt;Group&gt;</title>
	<style>
		.s0 { fill: #ffffff } 
	</style>
	<g id="&lt;Group&gt;">
		<g id="&lt;Group&gt;">
			<path id="&lt;Compound Path&gt;" class="s0" d="m312.1 215.2l119.9 257.1h-131.6l7.9-22.4h85.4l-84.8-180.1-55.8 117.9-40.1 84.6h-28.7l121.5-257.1z"/>
			<g id="&lt;Group&gt;">
				<path id="&lt;Path&gt;" class="s0" d="m586.6 283.6q0 21-9.9 37-9.9 15.9-28.2 24-18.3 8.1-50.4 8.3v-24.8q23.9-0.2 35.7-4.9 12.4-4.9 19.3-15.6 6.9-10.8 6.9-24 0-13-7-23.6-7-10.5-18.4-15.1-11.4-4.5-37.8-4.5h-45.4v80.3 7.1 25.2 2.6 116.7l-25.7-50.9v-206.2h51.3q42.8 0 58 3.5 22.9 5.3 37.2 22.5 14.4 17.2 14.4 42.4z"/>
				<path id="&lt;Path&gt;" class="s0" d="m501.3 369.8h32.4l79.6 102.5h-32.4z"/>
			</g>
		</g>
		<g id="&lt;Group&gt;">
			<path id="&lt;Compound Path&gt;" class="s0" d="m203.9 509.5l17.3 37.2h-19l1.1-3.2h12.3l-12.2-26.1-8.1 17.1-5.8 12.2h-4.1l17.5-37.2z"/>
			<path id="&lt;Compound Path&gt;" class="s0" d="m278.9 509.5l17.3 37.2h-19l1.1-3.2h12.3l-12.2-26.1-8.1 17.1-5.8 12.2h-4.1l17.5-37.2z"/>
			<path id="&lt;Compound Path&gt;" class="s0" d="m365.9 509.5l17.3 37.2h-19l1.1-3.2h12.3l-12.2-26.1-8.1 17.1-5.8 12.2h-4.1l17.5-37.2z"/>
			<path id="&lt;Compound Path&gt;" class="s0" d="m447.9 509.5l17.3 37.2h-19l1.1-3.2h12.3l-12.2-26.1-8.1 17.1-5.8 12.2h-4.1l17.5-37.2z"/>
			<g id="&lt;Group&gt;">
				<path id="&lt;Path&gt;" class="s0" d="m510.9 519.3q0 3.1-1.4 5.4-1.5 2.3-4.1 3.5-2.7 1.2-7.3 1.2v-3.6q3.4 0 5.2-0.7 1.7-0.7 2.7-2.3 1.1-1.5 1.1-3.5 0-1.8-1.1-3.4-1-1.5-2.6-2.2-1.7-0.6-5.5-0.6h-6.6v11.6 1 3.7 0.4 16.9l-3.7-7.4v-29.9h7.4q6.2 0 8.4 0.5 3.3 0.8 5.4 3.3 2.1 2.5 2.1 6.1z"/>
				<path id="&lt;Path&gt;" class="s0" d="m498.5 531.8h4.7l11.6 14.9h-4.7z"/>
			</g>
			<g id="&lt;Group&gt;">
				<path id="&lt;Compound Path&gt;" class="s0" d="m225.8 546.7v-37.2h0.8l24.7 28.5v-28.5h3.7v37.2h-0.9l-24.5-28.1v28.1z"/>
			</g>
			<g id="&lt;Group&gt;">
				<path id="&lt;Compound Path&gt;" class="s0" d="m327.7 513v-3.7h20.5v3.7h-8.3v33.7h-3.8v-33.7z"/>
			</g>
			<path id="I" class="s0" aria-label="I"  d="m419.7 547v-37.3h3.7v37.3z"/>
			<g id="&lt;Group&gt;">
				<path id="&lt;Compound Path&gt;" fill-rule="evenodd" class="s0" d="m536.3 509.6q8 0 13.4 5.4 5.4 5.4 5.4 13.2 0 7.7-5.4 13.1-5.4 5.5-13.2 5.5-7.8 0-13.2-5.4-5.4-5.4-5.4-13 0-5.1 2.4-9.5 2.5-4.3 6.8-6.8 4.2-2.5 9.2-2.5zm0.1 3.5q-3.9 0-7.4 2-3.5 2.1-5.5 5.5-2 3.5-2 7.7 0 6.3 4.4 10.7 4.4 4.3 10.5 4.3 4.1 0 7.6-2 3.5-2 5.5-5.4 2-3.5 2-7.7 0-4.2-2-7.6-2-3.4-5.5-5.5-3.6-2-7.6-2z"/>
			</g>
			<g id="&lt;Group&gt;">
				<path id="&lt;Compound Path&gt;" class="s0" d="m591 509.8h21.2v3.6h-17.5v11.6h17.4v3.6h-17.4v14.5h17.4v3.7h-21.1z"/>
			</g>
			<g id="&lt;Group&gt;">
				<path id="&lt;Compound Path&gt;" class="s0" d="m300.4 539.2l3.1-1.8q3.1 5.9 7.3 5.9 1.8 0 3.4-0.8 1.6-0.9 2.4-2.3 0.8-1.4 0.8-2.9 0-1.8-1.2-3.6-1.7-2.3-6.1-5.7-4.4-3.3-5.5-4.8-1.9-2.5-1.9-5.5 0-2.3 1.1-4.2 1.1-1.9 3.1-3 2-1.1 4.4-1.1 2.5 0 4.7 1.2 2.2 1.3 4.6 4.6l-2.9 2.2q-2-2.6-3.4-3.5-1.4-0.8-3.1-0.8-2.1 0-3.5 1.3-1.3 1.3-1.3 3.2 0 1.2 0.4 2.2 0.5 1.1 1.8 2.4 0.7 0.7 4.6 3.6 4.6 3.4 6.3 6 1.7 2.7 1.7 5.4 0 3.8-2.9 6.7-2.9 2.9-7.1 2.9-3.3 0-5.9-1.8-2.6-1.7-4.9-5.8z"/>
			</g>
			<g id="&lt;Group&gt;">
				<path id="&lt;Compound Path&gt;" class="s0" d="m389.8 539.2l3.1-1.8q3.2 5.9 7.3 5.9 1.8 0 3.4-0.8 1.6-0.9 2.4-2.3 0.8-1.4 0.8-2.9 0-1.8-1.2-3.6-1.7-2.3-6.1-5.7-4.4-3.3-5.5-4.8-1.9-2.5-1.9-5.5 0-2.3 1.1-4.2 1.1-1.9 3.1-3 2.1-1.1 4.4-1.1 2.5 0 4.7 1.2 2.2 1.3 4.7 4.6l-2.9 2.2q-2.1-2.6-3.5-3.5-1.4-0.8-3.1-0.8-2.1 0-3.5 1.3-1.3 1.3-1.3 3.2 0 1.2 0.4 2.2 0.5 1.1 1.8 2.4 0.7 0.7 4.6 3.6 4.6 3.4 6.3 6 1.8 2.7 1.8 5.4 0 3.8-3 6.7-2.9 2.9-7.1 2.9-3.3 0-5.9-1.8-2.6-1.7-4.9-5.8z"/>
			</g>
			<g id="&lt;Group&gt;">
				<path id="&lt;Compound Path&gt;" class="s0" d="m561.8 539.2l3.1-1.8q3.2 5.9 7.3 5.9 1.8 0 3.4-0.8 1.6-0.9 2.4-2.3 0.8-1.4 0.8-2.9 0-1.8-1.2-3.6-1.7-2.3-6.1-5.7-4.4-3.3-5.5-4.8-1.9-2.5-1.9-5.5 0-2.3 1.1-4.2 1.1-1.9 3.1-3 2.1-1.1 4.4-1.1 2.5 0 4.7 1.2 2.2 1.3 4.7 4.6l-2.9 2.2q-2.1-2.6-3.5-3.5-1.4-0.8-3.1-0.8-2.1 0-3.5 1.3-1.3 1.3-1.3 3.2 0 1.2 0.4 2.2 0.5 1.1 1.8 2.4 0.7 0.7 4.6 3.6 4.6 3.4 6.3 6 1.8 2.7 1.8 5.4 0 3.8-3 6.7-2.9 2.9-7.1 2.9-3.3 0-5.9-1.8-2.6-1.7-4.9-5.8z"/>
			</g>
		</g>
		<g id="&lt;Group&gt;">
			<path id="&lt;Compound Path&gt;" fill-rule="evenodd" class="s0" d="m732.1 399c0 183.4-148.6 332.1-332 332.1-183.4 0-332-148.7-332-332.1 0-183.3 148.6-332 332-332 183.4 0 332 148.7 332 332zm-457.7-297.6c-38.5 16.3-73.1 39.6-102.7 69.2-29.7 29.7-53 64.3-69.2 102.7-16.9 39.8-25.4 82.1-25.4 125.7 0 43.7 8.5 86 25.4 125.8 16.2 38.4 39.5 73 69.2 102.7 29.6 29.6 64.2 52.9 102.7 69.2 39.8 16.8 82.1 25.4 125.7 25.4 43.6 0 85.9-8.6 125.7-25.4 38.5-16.3 73-39.6 102.7-69.2 29.7-29.7 53-64.3 69.2-102.7 16.9-39.8 25.4-82.1 25.4-125.8 0-43.6-8.5-85.9-25.4-125.7-16.2-38.4-39.5-73-69.2-102.7-29.7-29.6-64.2-52.9-102.7-69.2-39.8-16.8-82.1-25.4-125.7-25.4-43.6 0-85.9 8.6-125.7 25.4z"/>
		</g>
	</g>
</svg>