<?xml version="1.0" standalone="no"?>
<!DOCTYPE svg PUBLIC "-//W3C//DTD SVG 20010904//EN"
 "http://www.w3.org/TR/2001/REC-SVG-20010904/DTD/svg10.dtd">
<svg version="1.0" xmlns="http://www.w3.org/2000/svg"
 width="1024.000000pt" height="1024.000000pt" viewBox="0 0 1024.000000 1024.000000"
 preserveAspectRatio="xMidYMid meet">
<metadata>
Created by potrace 1.14, written by Peter Selinger 2001-2017
</metadata>
<g transform="translate(0.000000,1024.000000) scale(0.100000,-0.100000)"
fill="#000000" stroke="none">
<path d="M0 5120 l0 -5120 5120 0 5120 0 0 5120 0 5120 -5120 0 -5120 0 0
-5120z m5445 4249 c1098 -82 2125 -592 2855 -1419 41 -46 83 -93 93 -105 10
-11 58 -72 107 -136 936 -1226 1133 -2863 514 -4284 -155 -357 -389 -731 -647
-1035 -509 -601 -1179 -1053 -1912 -1293 -321 -105 -543 -152 -940 -198 -143
-17 -644 -17 -790 0 -169 19 -370 50 -475 72 -801 169 -1532 562 -2106 1134
-253 252 -386 411 -554 663 -687 1033 -891 2279 -570 3477 149 555 413 1078
774 1530 143 180 361 411 501 532 33 28 74 64 90 78 112 98 386 293 550 392
283 169 483 260 885 403 246 88 677 169 1030 193 113 8 468 6 595 -4z"/>
<path d="M4890 9260 c-353 -18 -729 -89 -1077 -206 -709 -237 -1321 -648
-1833 -1233 -265 -302 -525 -727 -685 -1121 -208 -511 -305 -1010 -305 -1565
0 -674 138 -1258 440 -1865 238 -479 609 -950 1020 -1294 625 -524 1345 -840
2160 -948 153 -20 216 -23 510 -23 383 0 594 21 880 86 354 81 601 167 909
315 287 138 455 241 714 437 677 509 1184 1230 1442 2047 130 409 188 797 188
1245 0 655 -137 1242 -428 1830 -206 416 -443 747 -776 1085 -229 233 -524
464 -811 636 -118 70 -464 241 -586 288 -570 222 -1150 316 -1762 286z m-893
-1782 c5 -7 103 -215 218 -463 115 -247 233 -502 263 -565 30 -63 80 -171 112
-240 32 -69 76 -163 98 -210 22 -47 82 -177 135 -290 52 -113 118 -254 147
-315 29 -60 74 -157 100 -215 26 -58 78 -167 114 -244 36 -76 66 -139 66 -141
0 -2 25 -56 55 -120 31 -65 65 -137 75 -161 11 -23 47 -99 80 -169 33 -70 60
-134 60 -141 0 -12 -137 -14 -835 -14 -459 0 -835 3 -835 8 0 4 21 69 47 144
l48 138 547 0 547 0 -41 88 c-22 48 -58 125 -80 172 -92 194 -132 278 -158
335 -15 33 -56 119 -90 190 -34 72 -75 157 -90 190 -15 33 -122 260 -237 505
-116 245 -234 497 -264 560 -30 63 -70 149 -90 190 l-37 75 -30 -65 c-16 -36
-53 -113 -81 -172 -80 -169 -142 -299 -226 -478 -43 -91 -113 -239 -156 -329
-44 -90 -79 -165 -79 -166 0 -1 -32 -69 -71 -151 -39 -82 -88 -185 -109 -229
-21 -44 -77 -163 -125 -265 -96 -204 -143 -303 -260 -550 -43 -91 -82 -171
-88 -177 -11 -14 -352 -19 -360 -5 -2 4 71 167 164 362 298 628 350 737 409
865 15 33 62 131 104 219 42 87 76 159 76 161 0 1 32 69 71 151 39 82 102 214
139 294 37 80 102 216 144 304 42 87 76 160 76 162 0 1 30 65 66 141 37 76
115 239 173 363 138 291 125 270 165 270 19 0 38 -6 43 -12z m2358 2 c492 -15
629 -48 832 -198 222 -165 339 -434 319 -732 -23 -343 -192 -590 -494 -724
-124 -54 -282 -84 -544 -101 l-88 -5 0 158 0 158 148 12 c248 20 372 64 485
174 94 92 157 250 157 392 -1 191 -124 392 -290 473 -125 61 -177 66 -662 71
l-438 4 -2 -1480 -3 -1480 -163 321 -162 322 0 1316 c0 724 3 1319 7 1322 9
10 557 8 898 -3z m622 -2161 c81 -105 166 -214 189 -243 153 -193 666 -859
670 -871 6 -14 -17 -15 -197 -13 l-203 3 -110 141 c-61 78 -277 357 -481 619
-203 263 -382 493 -397 510 -16 18 -28 35 -28 39 0 3 92 6 204 6 l204 0 149
-191z m-4258 -1834 c57 -121 105 -226 108 -232 4 -10 -23 -13 -116 -13 -67 0
-121 2 -121 4 0 30 16 36 91 36 l78 0 -18 43 c-10 23 -46 98 -79 167 l-59 125
-59 -125 c-107 -227 -117 -245 -141 -248 -13 -2 -23 1 -23 6 0 8 183 401 211
454 6 11 14 16 18 12 5 -5 54 -108 110 -229z m338 53 l158 -181 3 182 c2 182
2 182 25 179 22 -3 22 -4 25 -232 1 -126 -1 -233 -6 -238 -4 -4 -77 72 -162
170 l-155 177 -3 -177 -2 -178 -25 0 -25 0 0 240 c0 132 2 240 4 240 3 0 76
-82 163 -182z m622 -53 c57 -121 105 -226 108 -232 4 -10 -23 -13 -116 -13
-67 0 -121 2 -121 4 0 30 16 36 91 36 l78 0 -18 43 c-10 23 -46 98 -79 167
l-59 125 -59 -125 c-107 -227 -117 -245 -141 -248 -13 -2 -23 1 -23 6 0 8 183
401 211 454 6 11 14 16 18 12 5 -5 54 -108 110 -229z m359 221 c15 -8 36 -24
46 -35 18 -20 19 -23 3 -38 -16 -16 -19 -15 -45 10 -37 36 -85 37 -108 2 -25
-38 -11 -67 63 -126 111 -89 139 -155 92 -220 -55 -77 -164 -76 -220 3 -20 27
-20 31 -6 45 14 14 18 12 47 -21 26 -29 39 -36 69 -36 48 0 81 30 81 73 0 27
-13 44 -85 112 -46 44 -89 93 -95 109 -32 86 72 167 158 122z m422 -11 c0 -24
-3 -25 -55 -25 l-55 0 0 -215 0 -215 -25 0 -25 0 0 215 0 215 -49 0 c-51 0
-67 10 -57 35 4 12 31 15 136 15 l130 0 0 -25z m333 -214 c59 -126 107 -232
107 -235 0 -3 -52 -6 -115 -6 -108 0 -115 1 -115 20 0 18 7 20 80 20 44 0 80
2 80 4 0 8 -142 311 -149 319 -4 4 -27 -34 -51 -85 -129 -276 -130 -278 -156
-278 -13 0 -24 2 -24 4 0 2 39 86 86 187 48 101 97 208 110 237 13 29 28 51
33 48 4 -3 56 -108 114 -235z m424 197 c31 -30 32 -34 17 -45 -14 -10 -22 -8
-46 12 -52 44 -118 28 -118 -29 0 -34 14 -50 123 -140 74 -61 83 -138 25 -195
-59 -57 -128 -53 -192 11 -39 38 -40 41 -21 54 17 13 22 10 51 -21 26 -29 39
-35 71 -35 62 0 97 54 69 107 -14 29 -29 43 -104 102 -73 57 -92 123 -51 175
45 57 120 59 176 4z m201 -201 l2 -237 -25 0 -25 0 0 233 c0 129 3 237 7 241
4 4 14 5 23 4 13 -3 15 -36 18 -241z m366 131 c122 -259 166 -356 166 -363 0
-3 -52 -5 -115 -5 -108 0 -115 1 -115 20 0 18 7 20 80 20 44 0 80 2 80 4 0 8
-142 311 -149 319 -4 4 -27 -34 -51 -85 -129 -276 -130 -278 -156 -278 -13 0
-24 2 -24 4 0 5 16 40 122 266 22 47 53 113 69 148 15 34 31 62 34 62 4 0 30
-51 59 -112z m676 99 c42 -15 80 -68 80 -113 0 -70 -40 -113 -117 -124 -40 -6
-43 -5 -43 17 0 17 6 23 20 23 29 0 76 26 84 45 12 33 5 66 -19 90 -21 22 -33
25 -100 25 l-75 0 0 -212 -1 -213 -24 45 c-23 43 -24 54 -25 238 l0 192 93 -1
c50 0 108 -5 127 -12z m520 -21 c58 -29 105 -91 120 -159 23 -99 -31 -210
-123 -259 -32 -17 -60 -22 -113 -23 -61 0 -77 4 -120 30 -124 77 -152 251 -57
356 80 89 187 109 293 55z m406 18 c19 -9 41 -26 50 -38 13 -19 13 -22 -2 -33
-14 -10 -22 -8 -46 12 -55 46 -122 24 -116 -38 2 -24 18 -43 77 -91 87 -72
116 -119 106 -173 -12 -67 -92 -116 -162 -98 -15 3 -45 24 -67 47 -38 38 -39
41 -22 54 17 12 23 10 53 -21 27 -28 42 -35 73 -35 72 0 102 78 52 133 -9 11
-43 39 -75 64 -87 68 -110 131 -66 187 37 47 87 57 145 30z m454 -14 c0 -19
-7 -20 -115 -20 l-115 0 0 -75 0 -75 110 0 110 0 0 -25 0 -25 -110 0 -110 0 0
-90 0 -90 110 0 110 0 0 -25 0 -26 -132 3 -133 3 -3 233 -2 232 140 0 c133 0
140 -1 140 -20z m-1330 -345 c35 -46 66 -89 68 -94 2 -6 -7 -11 -21 -11 -19 0
-41 20 -96 90 -39 49 -71 92 -71 95 0 3 12 5 28 5 22 -1 39 -16 92 -85z"/>
<path d="M6785 3653 c-74 -39 -105 -92 -105 -180 0 -60 9 -84 49 -126 39 -43
74 -57 139 -57 97 0 174 65 188 158 12 83 -39 178 -113 208 -43 18 -121 17
-158 -3z"/>
</g>
</svg>
